<?xml version="1.0" encoding="UTF-8" standalone="no"?>
<!-- Created with Inkscape (http://www.inkscape.org/) -->

<svg
   xmlns:dc="http://purl.org/dc/elements/1.1/"
   xmlns:cc="http://creativecommons.org/ns#"
   xmlns:rdf="http://www.w3.org/1999/02/22-rdf-syntax-ns#"
   xmlns:svg="http://www.w3.org/2000/svg"
   xmlns="http://www.w3.org/2000/svg"
   xmlns:sodipodi="http://sodipodi.sourceforge.net/DTD/sodipodi-0.dtd"
   xmlns:inkscape="http://www.inkscape.org/namespaces/inkscape"
   width="16.001593"
   height="16.002001"
   id="svg7121"
   version="1.1"
   inkscape:version="0.48.4 r9939"
   sodipodi:docname="nut-ghost-ol-caution-charged-symbolic.svg">
  <title
     id="title3251">walNUT</title>
  <defs
     id="defs7123" />
  <sodipodi:namedview
     id="base"
     pagecolor="#3a3b39"
     bordercolor="#666666"
     borderopacity="1.0"
     inkscape:pageopacity="1"
     inkscape:pageshadow="2"
     inkscape:zoom="32"
     inkscape:cx="-1.881654"
     inkscape:cy="7.6184129"
     inkscape:current-layer="layer40"
     showgrid="true"
     inkscape:grid-bbox="true"
     inkscape:document-units="px"
     gridtolerance="10"
     inkscape:window-width="1680"
     inkscape:window-height="991"
     inkscape:window-x="0"
     inkscape:window-y="27"
     inkscape:window-maximized="1"
     inkscape:snap-bbox="true"
     inkscape:snap-bbox-edge-midpoints="true"
     inkscape:bbox-nodes="false"
     inkscape:bbox-paths="false"
     fit-margin-left="1"
     fit-margin-top="0"
     fit-margin-right="0"
     fit-margin-bottom="0"
     inkscape:object-paths="true"
     inkscape:snap-intersection-paths="true">
    <inkscape:grid
       type="xygrid"
       id="grid7129"
       empspacing="2"
       visible="true"
       enabled="true"
       snapvisiblegridlinesonly="true"
       originx="1px"
       originy="0.0020003326px" />
  </sodipodi:namedview>
  <metadata
     id="metadata7126">
    <rdf:RDF>
      <cc:Work
         rdf:about="">
        <dc:format>image/svg+xml</dc:format>
        <dc:type
           rdf:resource="http://purl.org/dc/dcmitype/StillImage" />
        <dc:title>walNUT</dc:title>
        <dc:creator>
          <cc:Agent>
            <dc:title>Daniele Pezzini</dc:title>
          </cc:Agent>
        </dc:creator>
        <cc:license
           rdf:resource="http://artlibre.org/licence/lal" />
        <dc:rights>
          <cc:Agent>
            <dc:title>Daniele Pezzini</dc:title>
          </cc:Agent>
        </dc:rights>
      </cc:Work>
      <cc:License
         rdf:about="http://artlibre.org/licence/lal">
        <cc:permits
           rdf:resource="http://creativecommons.org/ns#Reproduction" />
        <cc:permits
           rdf:resource="http://creativecommons.org/ns#Distribution" />
        <cc:permits
           rdf:resource="http://creativecommons.org/ns#DerivativeWorks" />
        <cc:requires
           rdf:resource="http://creativecommons.org/ns#ShareAlike" />
        <cc:requires
           rdf:resource="http://creativecommons.org/ns#Notice" />
        <cc:requires
           rdf:resource="http://creativecommons.org/ns#Attribution" />
      </cc:License>
    </rdf:RDF>
  </metadata>
  <g
     style="display:inline"
     inkscape:label="shell ring full lightning alarm w peaks"
     id="g4986"
     inkscape:groupmode="layer"
     transform="translate(1,0)"
     sodipodi:insensitive="true">
    <path
       style="opacity:0.35;fill:#bebebe;fill-opacity:1;stroke:none;stroke-width:2.19089007;marker-start:none;marker-mid:none;marker-end:none;display:inline"
       clip-path="none"
       d="M 6.40625,0 C 5.9146662,0.04633037 5.5,0.47496039 5.5,1 l 0,0.21875 C 2.9132834,1.9967235 1,4.7392118 1,8 c 0,3.26321 1.9103581,6.005616 4.5,6.78125 L 5.5,15 c 0,0.52504 0.4146662,0.95367 0.90625,1 0.031227,0.0015 0.062523,0.0015 0.09375,0 l 1,0 c 0.5235845,-5.2e-5 0.9999429,-0.429538 1,-1 l 0,-0.21875 C 9.0695275,14.610887 9.6029649,14.345073 10.09375,14 L 9,14 8.5,14 8,14 8,13.1875 8,11.15625 11.15625,8 9,8 9,1.40625 C 8.8370988,1.3391323 8.6693211,1.2703961 8.5,1.21875 L 8.5,1 C 8.4999429,0.4295386 8.0235845,5.235e-5 7.5,0 l -1,0 C 6.468773,-0.0014652 6.437477,-0.0014652 6.40625,0 z"
       transform="translate(-1,0)"
       id="path4988"
       inkscape:connector-curvature="0" />
  </g>
  <g
     style="display:inline"
     inkscape:label="lightning light"
     id="g9599"
     inkscape:groupmode="layer"
     sodipodi:insensitive="true"
     transform="translate(1,0)">
    <path
       inkscape:connector-curvature="0"
       d="m 11.749638,8.0019094 a 1.016466,1.016466 0 0 0 -0.46875,0.28125 L 8.2808875,11.283163 a 1.0001,1.0001 0 0 0 -0.28125,0.90625 l 0,0.8125 0.8125,0 0.1875,0 2.5625005,0 -1.28125,1.28125 a 1.016466,1.016466 0 0 0 -0.28125,0.84375 1.016466,1.016466 0 0 0 0,0.0937 l 0,0.78125 0.84375,0 0.15625,0 a 1.016466,1.016466 0 0 0 0.71875,-0.28125 l 3,-3 a 1.0001,1.0001 0 0 0 0.28125,-0.7187 1.0001,1.0001 0 0 0 0,-0.125 l 0,-0.875 -0.84375,0 -0.15625,0 -2.5625,0 1.28125,-1.2812536 a 1.016466,1.016466 0 0 0 0.28125,-0.84375 1.016466,1.016466 0 0 0 0,-0.0937 l 0,-0.7813 -0.84375,0 -0.0937,0 a 1.016466,1.016466 0 0 0 -0.0625,0 1.016466,1.016466 0 0 0 -0.25,0 z"
       id="path10747"
       style="font-size:xx-small;font-style:normal;font-variant:normal;font-weight:normal;font-stretch:normal;text-indent:0;text-align:start;text-decoration:none;line-height:normal;letter-spacing:normal;word-spacing:normal;text-transform:none;direction:ltr;block-progression:tb;writing-mode:lr-tb;text-anchor:start;opacity:0.35;color:#bebebe;fill:#bebebe;fill-opacity:1;fill-rule:nonzero;stroke:none;stroke-width:2;marker:none;visibility:visible;display:inline;overflow:visible;enable-background:accumulate;font-family:Bitstream Vera Sans;-inkscape-font-specification:Bitstream Vera Sans" />
  </g>
  <g
     inkscape:groupmode="layer"
     id="layer40"
     inkscape:label="alarm"
     style="display:inline"
     sodipodi:insensitive="true"
     transform="translate(1,0)">
    <path
       class="warning"
       style="font-size:medium;font-style:normal;font-variant:normal;font-weight:normal;font-stretch:normal;text-indent:0;text-align:start;text-decoration:none;line-height:normal;letter-spacing:normal;word-spacing:normal;text-transform:none;direction:ltr;block-progression:tb;writing-mode:lr-tb;text-anchor:start;baseline-shift:baseline;color:#000000;fill:#f57900;fill-opacity:1;fill-rule:nonzero;stroke:none;stroke-width:2;marker:none;visibility:visible;display:inline;overflow:visible;enable-background:accumulate;font-family:Sans;-inkscape-font-specification:Sans"
       d="M 9.9062581,0.00109892 C 9.4146743,0.04742929 8.997879,0.50734124 9.0000081,1.0010989 l 0,5 c 5.24e-5,0.5235845 0.4764155,0.9999476 0.9999999,1 l 4,0 c 0.523585,-5.24e-5 0.999948,-0.4764155 1,-1 l 0,-5 c -5.2e-5,-0.52358445 -0.476415,-0.99994763 -1,-0.99999998 l -4,0 c -0.031227,-0.001465227 -0.062523,-0.001465227 -0.09375,0 z m 1.0937499,0.99999998 2,0 0,3 -2,0 0,-3 z m 0,4 2,0 0,1 -2,0 0,-1 z"
       id="rect15469"
       inkscape:connector-curvature="0" />
  </g>
</svg>
