<?xml version="1.0" encoding="UTF-8" standalone="no"?>
<!-- Created with Inkscape (http://www.inkscape.org/) -->

<svg
   xmlns:dc="http://purl.org/dc/elements/1.1/"
   xmlns:cc="http://creativecommons.org/ns#"
   xmlns:rdf="http://www.w3.org/1999/02/22-rdf-syntax-ns#"
   xmlns:svg="http://www.w3.org/2000/svg"
   xmlns="http://www.w3.org/2000/svg"
   xmlns:sodipodi="http://sodipodi.sourceforge.net/DTD/sodipodi-0.dtd"
   xmlns:inkscape="http://www.inkscape.org/namespaces/inkscape"
   width="16.001593"
   height="16.002001"
   id="svg7121"
   version="1.1"
   inkscape:version="0.48.4 r9939"
   sodipodi:docname="nut-ghost-ol-charging-symbolic.svg">
  <title
     id="title3251">walNUT</title>
  <defs
     id="defs7123" />
  <sodipodi:namedview
     id="base"
     pagecolor="#3a3b39"
     bordercolor="#666666"
     borderopacity="1.0"
     inkscape:pageopacity="1"
     inkscape:pageshadow="2"
     inkscape:zoom="32"
     inkscape:cx="-1.881654"
     inkscape:cy="7.6184129"
     inkscape:current-layer="layer26"
     showgrid="true"
     inkscape:grid-bbox="true"
     inkscape:document-units="px"
     gridtolerance="10"
     inkscape:window-width="1680"
     inkscape:window-height="991"
     inkscape:window-x="0"
     inkscape:window-y="27"
     inkscape:window-maximized="1"
     inkscape:snap-bbox="true"
     inkscape:snap-bbox-edge-midpoints="true"
     inkscape:bbox-nodes="false"
     inkscape:bbox-paths="false"
     fit-margin-left="1"
     fit-margin-top="0"
     fit-margin-right="0"
     fit-margin-bottom="0"
     inkscape:object-paths="true"
     inkscape:snap-intersection-paths="true">
    <inkscape:grid
       type="xygrid"
       id="grid7129"
       empspacing="2"
       visible="true"
       enabled="true"
       snapvisiblegridlinesonly="true"
       originx="1px"
       originy="0.0020003326px" />
  </sodipodi:namedview>
  <metadata
     id="metadata7126">
    <rdf:RDF>
      <cc:Work
         rdf:about="">
        <dc:format>image/svg+xml</dc:format>
        <dc:type
           rdf:resource="http://purl.org/dc/dcmitype/StillImage" />
        <dc:title>walNUT</dc:title>
        <dc:creator>
          <cc:Agent>
            <dc:title>Daniele Pezzini</dc:title>
          </cc:Agent>
        </dc:creator>
        <cc:license
           rdf:resource="http://artlibre.org/licence/lal" />
        <dc:rights>
          <cc:Agent>
            <dc:title>Daniele Pezzini</dc:title>
          </cc:Agent>
        </dc:rights>
      </cc:Work>
      <cc:License
         rdf:about="http://artlibre.org/licence/lal">
        <cc:permits
           rdf:resource="http://creativecommons.org/ns#Reproduction" />
        <cc:permits
           rdf:resource="http://creativecommons.org/ns#Distribution" />
        <cc:permits
           rdf:resource="http://creativecommons.org/ns#DerivativeWorks" />
        <cc:requires
           rdf:resource="http://creativecommons.org/ns#ShareAlike" />
        <cc:requires
           rdf:resource="http://creativecommons.org/ns#Notice" />
        <cc:requires
           rdf:resource="http://creativecommons.org/ns#Attribution" />
      </cc:License>
    </rdf:RDF>
  </metadata>
  <g
     inkscape:groupmode="layer"
     id="g4956"
     inkscape:label="shell ring full lightning w peaks"
     style="display:inline"
     transform="translate(1,0)"
     sodipodi:insensitive="true">
    <path
       style="opacity:0.35;fill:#bebebe;fill-opacity:1;stroke:none;stroke-width:2.19089007;marker-start:none;marker-mid:none;marker-end:none;display:inline"
       clip-path="none"
       d="M 6.40625,0 C 5.9146662,0.04633037 5.5,0.47496039 5.5,1 l 0,0.21875 C 2.9127363,1.9962862 1,4.7387588 1,8 c 0,3.262156 1.911631,6.004597 4.5,6.78125 L 5.5,15 c 0,0.52504 0.4146662,0.95367 0.90625,1 0.031227,0.0015 0.062523,0.0015 0.09375,0 l 1,0 c 0.5235845,-5.2e-5 0.9999429,-0.429538 1,-1 l 0,-0.21875 C 9.0681956,14.610847 9.6039949,14.344349 10.09375,14 L 9,14 8.5,14 8,14 8,13.1875 8,11.15625 12.15625,7 12.9375,7 C 12.592565,4.1917445 10.815273,1.9168995 8.5,1.21875 L 8.5,1 C 8.4999429,0.4295386 8.0235845,5.235e-5 7.5,0 l -1,0 C 6.468773,-0.0014652 6.437477,-0.0014652 6.40625,0 z"
       transform="translate(-1,0)"
       id="path4958"
       inkscape:connector-curvature="0" />
  </g>
  <g
     inkscape:groupmode="layer"
     id="layer26"
     inkscape:label="lightning full"
     style="display:inline"
     sodipodi:insensitive="true"
     transform="translate(1,0)">
    <path
       inkscape:connector-curvature="0"
       d="m 11.749857,8.0018598 a 1.0165249,1.016466 0 0 0 -0.468778,0.28125 L 8.2809049,11.283113 a 1.000158,1.0001 0 0 0 -0.2812663,0.90625 l 0,0.8125 1.000058,0 2.1251234,0 -0.843799,1.28125 a 1.0165249,1.016466 0 0 0 -0.281266,0.9375 l 0,0.78125 1.000058,0 a 1.0165249,1.016466 0 0 0 0.718792,-0.28125 l 3.000174,-3 a 1.000158,1.0001 0 0 0 0.281266,-0.71875 1.000158,1.0001 0 0 0 0,-0.125 l 0,-0.875 -0.843799,0 -0.0937,0 a 1.000158,1.0001 0 0 0 -0.0625,0 l -2.125123,0 0.843799,-1.2812532 a 1.0165249,1.016466 0 0 0 0.281266,-0.9375 l 0,-0.78125 -0.937554,0 a 1.0165249,1.016466 0 0 0 -0.312518,0 z"
       id="path6217"
       style="font-size:xx-small;font-style:normal;font-variant:normal;font-weight:normal;font-stretch:normal;text-indent:0;text-align:start;text-decoration:none;line-height:normal;letter-spacing:normal;word-spacing:normal;text-transform:none;direction:ltr;block-progression:tb;writing-mode:lr-tb;text-anchor:start;color:#bebebe;fill:#bebebe;fill-opacity:1;fill-rule:nonzero;stroke:none;stroke-width:2;marker:none;visibility:visible;display:inline;overflow:visible;enable-background:accumulate;font-family:Bitstream Vera Sans;-inkscape-font-specification:Bitstream Vera Sans" />
  </g>
</svg>
